HIERARCHY
ROOT Hips
{
	OFFSET 0.00000 0.00000 0.00000
	CHANNELS 6 Xposition Yposition Zposition Zrotation Yrotation Xrotation 
	JOINT LHipJoint
	{
		OFFSET 0 0 0
		CHANNELS 3 Zrotation Yrotation Xrotation
		JOINT LeftHip
		{
			OFFSET 1.53139 -1.83434 0.76626
			CHANNELS 3 Zrotation Yrotation Xrotation
			JOINT LeftKnee
			{
				OFFSET 2.56112 -7.03663 0.00000
				CHANNELS 3 Zrotation Yrotation Xrotation
				JOINT LeftAnkle
				{
					OFFSET 2.59983 -7.14299 0.00000
					CHANNELS 3 Zrotation Yrotation Xrotation
					JOINT LeftToe
					{
						OFFSET 0.13742 -0.37757 2.00054
						CHANNELS 3 Zrotation Yrotation Xrotation
						End Site
						{
							OFFSET 0.00000 -0.00000 1.02897
						}
					}
				}
			}
		}
	}
	JOINT RHipJoint
	{
		OFFSET 0 0 0
		CHANNELS 3 Zrotation Yrotation Xrotation
		JOINT RightHip
		{
			OFFSET -1.40122 -1.83435 0.76627
			CHANNELS 3 Zrotation Yrotation Xrotation
			JOINT RightKnee
			{
				OFFSET -2.54052 -6.98003 0.00000
				CHANNELS 3 Zrotation Yrotation Xrotation
				JOINT RightAnkle
				{
					OFFSET -2.63179 -7.23079 0.00000
					CHANNELS 3 Zrotation Yrotation Xrotation
					JOINT RightToe
					{
						OFFSET -0.24131 -0.66299 2.03908
						CHANNELS 3 Zrotation Yrotation Xrotation
						End Site
						{
							OFFSET -0.00000 -0.00000 1.07391
						}
					}
				}
			}
		}
	}
	JOINT lowerback
	{
		OFFSET 0 0 0
		CHANNELS 3 Zrotation Yrotation Xrotation
		JOINT Chest
		{
			OFFSET 0.01174 2.10302 -0.29778
			CHANNELS 3 Zrotation Yrotation Xrotation
			JOINT Chest2
			{
				OFFSET 0.00772 2.13227 -0.01247
				CHANNELS 3 Zrotation Yrotation Xrotation
				JOINT lowerneck
				{
					OFFSET 0 0 0
					CHANNELS 3 Zrotation Yrotation Xrotation
					JOINT Neck
					{
						OFFSET -0.09219 1.60848 0.31481
						CHANNELS 3 Zrotation Yrotation Xrotation
						JOINT Head
						{
							OFFSET 0.13974 1.65456 -0.31134
							CHANNELS 3 Zrotation Yrotation Xrotation
							End Site
							{
								OFFSET 0.04742 1.69515 -0.14578
							}
						}
					}
				}
				JOINT LeftCollar
				{
					OFFSET 0 0 0
					CHANNELS 3 Zrotation Yrotation Xrotation
					JOINT LeftShoulder
					{
						OFFSET 3.24909 1.02882 -0.23993
CHANNELS 3 Zrotation Xrotation Yrotation
						JOINT LeftElbow
						{
OFFSET 0 -5.329550 -0.000000
CHANNELS 3 Zrotation Xrotation Yrotation
							JOINT LeftWrist
							{
OFFSET 0 -3.692320 -0.000000
CHANNELS 3 Zrotation Xrotation Yrotation
								JOINT lhand
								{
									OFFSET 0 0 0
CHANNELS 3 Zrotation Xrotation Yrotation
									JOINT LFingers
									{
OFFSET 0 -0.536600 -0.000000
CHANNELS 3 Zrotation Xrotation Yrotation
										End Site
										{
OFFSET 0 -0.432620 -0.000000
										}
									}
								}
								JOINT LThumb
								{
OFFSET 0 0.000000 0.000000
CHANNELS 3 Zrotation Xrotation Yrotation
									End Site
									{
OFFSET 0 -0.439220 0.439220
									}
								}
							}
						}
					}
				}
				JOINT RightCollar
				{
					OFFSET 0 0 0
					CHANNELS 3 Zrotation Yrotation Xrotation
					JOINT RightShoulder
					{
						OFFSET -3.21387 0.93002 -0.34594
CHANNELS 3 Zrotation Xrotation Yrotation
						JOINT RightElbow
						{
OFFSET 0 -5.234310 0.000000
CHANNELS 3 Zrotation Xrotation Yrotation
							JOINT RightWrist
							{
OFFSET 0 -3.553010 -0.000000
CHANNELS 3 Zrotation Xrotation Yrotation
								JOINT rhand
								{
									OFFSET 0 0 0
CHANNELS 3 Zrotation Xrotation Yrotation
									JOINT RFingers
									{
OFFSET 0 -0.772520 -0.000000
CHANNELS 3 Zrotation Xrotation Yrotation
										End Site
										{
OFFSET 0 -0.622830 -0.000000
										}
									}
								}
								JOINT RThumb
								{
OFFSET 0 0.000000 0.000000
CHANNELS 3 Zrotation Xrotation Yrotation
									End Site
									{
OFFSET 0 -0.632340 0.632340
									}
								}
							}
						}
					}
				}
			}
		}
	}
}
MOTION
Frames: 10
Frame Time: 0.008333333333333333
-4.220874 17.881009 8.760063 -9.329884 61.792123 -10.358734 0.000000 0.000000 0.000000 -15.477680 -5.444802 -24.801915 3.769636 11.842107 35.182772 0.017012 -4.673729 -3.858750 0.080542 -1.830186 -5.036646 0.000000 0.000000 0.000000 26.657888 -3.143043 2.583417 -1.132962 -6.759691 19.005455 -0.704846 3.857479 -15.023910 -0.002429 -0.319144 0.876906 2.467014 2.259400 11.313571 0.886429 3.391834 0.999415 -0.988085 1.638850 -5.204026 -12.502970 -6.350559 -20.020733 8.548977 -7.274734 27.867340 4.233613 -3.292799 13.586137 0.000000 0.000000 0.000000 1.931588 6.014020 -21.742066 15.619860 -25.002547 3.483760 19.587547 16.189042 -26.301292 0.000000 0.000000 0.000000 -7.125000 0.000000 0.000000 -11.498542 57.290822 3.492811 0.000000 0.000000 0.000000 -6.346872 -3.113552 13.918887 -16.380537 -26.033801 -3.811470 -16.762470 2.460869 -7.698194 0.000000 0.000000 0.000000 7.125000 0.000000 0.000000 7.316232 21.967367 4.080785
-4.154291 17.878526 8.801760 -9.521292 61.909323 -10.441092 0.000000 0.000000 0.000000 -15.494579 -5.421147 -24.829159 3.456635 11.391106 33.621210 0.024320 -4.150532 -3.814552 0.068874 -1.686774 -4.640984 0.000000 0.000000 0.000000 26.751833 -3.366523 2.870377 -1.095028 -6.649129 18.680106 -0.706161 3.762786 -15.047493 -0.003630 0.006276 -0.017248 2.571398 2.292124 11.253490 0.908040 3.447843 0.983030 -1.029919 1.664634 -5.181178 -12.510510 -6.333448 -20.020973 8.520856 -7.236454 27.869757 4.230776 -3.280222 13.581181 0.000000 0.000000 0.000000 1.854328 6.034897 -21.706580 15.621937 -25.005415 3.484634 19.677767 16.227775 -26.384813 0.000000 0.000000 0.000000 -7.125000 0.000000 0.000000 -11.445971 57.394062 3.504997 0.000000 0.000000 0.000000 -6.526492 -3.284822 14.087968 -16.459306 -26.139327 -3.846114 -16.706914 2.384912 -7.701551 0.000000 0.000000 0.000000 7.125000 0.000000 0.000000 7.356539 21.966410 4.103754
-4.086641 17.874875 8.843110 -9.739353 62.037457 -10.543032 0.000000 0.000000 0.000000 -15.502611 -5.416660 -24.851734 3.150728 10.933488 32.057797 0.030876 -3.623742 -3.770640 0.053967 -1.495489 -4.113393 0.000000 0.000000 0.000000 26.851579 -3.571958 3.157702 -1.057208 -6.537608 18.352482 -0.711859 3.673528 -15.118774 -0.004937 0.453698 -1.246645 2.700134 2.321163 11.178879 0.922499 3.500975 0.965875 -1.091627 1.688528 -5.149194 -12.523481 -6.321958 -20.006058 8.521672 -7.215461 27.867378 4.237501 -3.272143 13.574950 0.000000 0.000000 0.000000 1.779292 6.027916 -21.598170 15.594857 -24.968269 3.473186 19.774026 16.320523 -26.464843 0.000000 0.000000 0.000000 -7.125000 0.000000 0.000000 -11.385201 57.495146 3.513957 0.000000 0.000000 0.000000 -6.701246 -3.442839 14.288089 -16.542370 -26.250459 -3.882716 -16.610615 2.269311 -7.671174 0.000000 0.000000 0.000000 7.125000 0.000000 0.000000 7.427290 22.002180 4.137750
-4.018077 17.866886 8.884174 -10.021474 62.237760 -10.657305 0.000000 0.000000 0.000000 -15.484835 -5.508265 -24.889267 2.864519 10.463823 30.500836 0.034406 -3.177799 -3.723816 0.035634 -1.197264 -3.291991 0.000000 0.000000 0.000000 26.972851 -3.654582 3.459643 -1.018931 -6.421291 18.011955 -0.724122 3.621440 -15.257883 -0.004132 0.415298 -1.141044 2.848967 2.329649 11.036611 0.936559 3.526245 0.950205 -1.157218 1.699119 -5.077471 -12.530913 -6.318861 -20.002961 8.548181 -7.214966 27.842789 4.249021 -3.268861 13.565349 0.000000 0.000000 0.000000 1.702429 5.984622 -21.393098 15.561039 -24.921817 3.458941 19.545356 16.145552 -26.198021 0.000000 0.000000 0.000000 -7.125000 0.000000 0.000000 -11.490122 57.178464 3.458400 0.000000 0.000000 0.000000 -6.866864 -3.603255 14.487525 -16.637938 -26.377862 -3.925143 -16.481602 2.140235 -7.591524 0.000000 0.000000 0.000000 7.125000 0.000000 0.000000 7.523106 22.090191 4.176770
-3.950317 17.858838 8.923716 -10.250473 62.426376 -10.710761 0.000000 0.000000 0.000000 -15.491954 -5.611642 -24.928179 2.587614 9.987094 28.942381 0.038109 -2.725912 -3.712713 0.024623 -1.012663 -2.783634 0.000000 0.000000 0.000000 27.063772 -3.691262 3.766091 -0.980367 -6.302160 17.663847 -0.732308 3.601195 -15.349126 -0.003844 0.160705 -0.441482 2.988785 2.337014 10.897760 0.935371 3.547840 0.934219 -1.233203 1.707901 -5.007586 -12.509804 -6.313065 -20.056776 8.542788 -7.205339 27.865235 4.245351 -3.261673 13.583602 0.000000 0.000000 0.000000 1.648336 5.946842 -21.250681 15.542814 -24.896814 3.451271 19.355135 15.971328 -25.983946 0.000000 0.000000 0.000000 -7.125000 0.000000 0.000000 -11.581633 56.923203 3.415075 0.000000 0.000000 0.000000 -6.996503 -3.807202 14.598979 -16.708841 -26.472330 -3.956687 -16.337225 2.115421 -7.618950 0.000000 0.000000 0.000000 7.125000 0.000000 0.000000 7.627191 22.068399 4.239738
-3.883487 17.850725 8.961497 -10.418011 62.601471 -10.693852 0.000000 0.000000 0.000000 -15.527878 -5.728640 -24.968686 2.321472 9.502193 27.382199 0.042011 -2.267147 -3.742938 0.022083 -0.959521 -2.637463 0.000000 0.000000 0.000000 27.119577 -3.674787 4.077756 -0.941471 -6.179773 17.306968 -0.735776 3.617794 -15.384987 -0.004153 -0.344016 0.945278 3.118170 2.343084 10.762862 0.916542 3.565182 0.917868 -1.321215 1.714590 -4.939828 -12.455671 -6.304146 -20.176438 8.500485 -7.185148 27.942098 4.224107 -3.249967 13.634081 0.000000 0.000000 0.000000 1.620588 5.915440 -21.180755 15.542628 -24.896628 3.451209 19.209398 15.797968 -25.830901 0.000000 0.000000 0.000000 -7.125000 0.000000 0.000000 -11.657629 56.739004 3.385903 0.000000 0.000000 0.000000 -7.084515 -4.061513 14.608642 -16.751205 -26.528692 -3.975639 -16.175075 2.211237 -7.770261 0.000000 0.000000 0.000000 7.125000 0.000000 0.000000 7.740845 21.919565 4.330413
-3.815080 17.843768 9.002591 -10.528702 62.720665 -10.636346 0.000000 0.000000 0.000000 -15.588780 -5.709489 -24.997518 2.074262 9.007720 25.827539 0.045335 -1.864652 -3.818388 0.031534 -1.133348 -3.115982 0.000000 0.000000 0.000000 27.176170 -3.743241 4.374591 -0.905993 -6.064907 16.973071 -0.732987 3.549727 -15.362423 -0.004884 -0.451332 1.240160 3.196651 2.382705 10.628227 0.908652 3.621439 0.880482 -1.375361 1.740947 -4.896154 -12.523068 -6.300434 -20.214799 8.546530 -7.166955 28.020539 4.260604 -3.241995 13.678617 0.000000 0.000000 0.000000 1.572963 5.907597 -21.098523 15.482440 -24.813880 3.425905 18.923883 15.709904 -25.558850 0.000000 0.000000 0.000000 -7.125000 0.000000 0.000000 -11.820552 56.407243 3.337852 0.000000 0.000000 0.000000 -7.193562 -4.263132 14.605315 -16.781264 -26.568595 -3.989070 -16.033855 2.343023 -7.749294 0.000000 0.000000 0.000000 7.125000 0.000000 0.000000 7.843981 21.947374 4.383961
-3.745492 17.837482 9.044711 -10.633659 62.839405 -10.585740 0.000000 0.000000 0.000000 -15.656374 -5.680381 -24.998305 1.835110 8.507698 24.270883 0.048512 -1.464578 -3.915996 0.045469 -1.365912 -3.756449 0.000000 0.000000 0.000000 27.242054 -3.834273 4.672857 -0.873011 -5.956882 16.659439 -0.729956 3.418853 -15.345842 -0.004730 -0.397759 1.092959 3.258485 2.427113 10.496442 0.908167 3.682567 0.841578 -1.413260 1.770045 -4.856879 -12.601774 -6.299070 -20.230921 8.588077 -7.148899 28.089805 4.297068 -3.236342 13.714994 0.000000 0.000000 0.000000 1.518114 5.910726 -21.030167 15.409464 -24.713447 3.395286 18.600404 15.632299 -25.262970 0.000000 0.000000 0.000000 -7.125000 0.000000 0.000000 -12.011116 56.044472 3.287040 0.000000 0.000000 0.000000 -7.326915 -4.441701 14.646185 -16.814829 -26.613080 -4.004076 -15.942964 2.403543 -7.692139 0.000000 0.000000 0.000000 7.125000 0.000000 0.000000 7.911580 22.010231 4.411098
-3.672964 17.832713 9.088252 -10.752887 62.989106 -10.581218 0.000000 0.000000 0.000000 -15.731318 -5.697785 -24.914319 1.611271 7.995111 22.704507 0.051547 -1.039756 -4.059689 0.067085 -1.658501 -4.563049 0.000000 0.000000 0.000000 27.337808 -3.949723 4.984398 -0.846192 -5.866826 16.398624 -0.729771 3.132087 -15.382694 -0.001448 -0.049614 0.136287 3.295524 2.467682 10.373808 0.925509 3.737009 0.809929 -1.417782 1.796678 -4.817983 -12.646863 -6.302352 -20.221631 8.563674 -7.130132 28.128206 4.299917 -3.236094 13.728186 0.000000 0.000000 0.000000 1.451222 5.935996 -21.014250 15.329566 -24.603200 3.361964 18.234111 15.539332 -24.958366 0.000000 0.000000 0.000000 -7.125000 0.000000 0.000000 -12.241458 55.666101 3.238172 0.000000 0.000000 0.000000 -7.527404 -4.575608 14.838869 -16.866980 -26.682077 -4.027426 -16.004220 2.210548 -7.616824 0.000000 0.000000 0.000000 7.125000 0.000000 0.000000 7.869277 22.084988 4.373565
-3.600053 17.826599 9.130833 -10.944225 63.089927 -10.663168 0.000000 0.000000 0.000000 -15.737875 -5.783460 -24.766094 1.403405 7.480796 21.153836 0.054121 -0.527886 -4.261669 0.082173 -1.846379 -5.081323 0.000000 0.000000 0.000000 27.459404 -4.003890 5.335833 -0.821409 -5.782299 16.154243 -0.735152 2.923805 -15.471767 -0.001198 0.182648 -0.501879 3.365199 2.503374 10.272714 0.949379 3.789723 0.790835 -1.434129 1.822159 -4.776360 -12.615811 -6.290929 -20.243173 8.495038 -7.099040 28.154972 4.273085 -3.227591 13.735350 0.000000 0.000000 0.000000 1.377035 5.982346 -20.999484 15.289869 -24.548398 3.345422 18.251331 15.646608 -25.006557 0.000000 0.000000 0.000000 -7.125000 0.000000 0.000000 -12.247290 55.717550 3.255502 0.000000 0.000000 0.000000 -7.682046 -4.725258 15.010128 -16.923969 -26.757410 -4.053041 -16.054071 2.042704 -7.626751 0.000000 0.000000 0.000000 7.125000 0.000000 0.000000 7.832811 22.072584 4.355115
